<svg width="53" height="50" viewBox="0 0 53 50" fill="none" xmlns="http://www.w3.org/2000/svg">
<path d="M26.5 0.291016C11.9131 0.291016 0.09375 11.3396 0.09375 24.9752C0.09375 38.6109 11.9131 49.6595 26.5 49.6595C41.0869 49.6595 52.9062 38.6109 52.9062 24.9752C52.9062 11.3396 41.0869 0.291016 26.5 0.291016ZM26.5 47.6064C19.0605 47.6064 12.3955 44.4497 7.95215 39.501C10.2119 38.5872 15.8486 36.6884 19.416 35.7153C19.6953 35.6322 19.7461 35.6203 19.7461 34.4454C19.7461 33.1875 19.5938 32.2974 19.2637 31.6447C18.8193 30.7547 18.2861 29.2475 18.0957 27.8946C17.5625 27.3131 16.8389 26.1739 16.3691 23.9903C15.9629 22.0677 16.1533 21.3676 16.4199 20.7148C16.4453 20.6436 16.4834 20.5724 16.4961 20.5012C16.5977 20.0621 16.458 17.7124 16.1025 15.8967C15.8613 14.6506 16.166 12.0042 18.0068 9.80869C19.1621 8.4202 21.3838 6.72316 25.3701 6.48581H27.5918C31.6416 6.72316 33.8633 8.4202 35.0186 9.80869C36.8594 12.0042 37.1641 14.6506 36.9102 15.8967C36.5547 17.7124 36.415 20.0503 36.5166 20.5012C36.5293 20.5724 36.5674 20.6436 36.5928 20.703C36.8594 21.3557 37.0625 22.0559 36.6436 23.9784C36.1738 26.162 35.4502 27.3013 34.917 27.8828C34.7266 29.2357 34.1934 30.7309 33.749 31.6329C33.3301 32.4517 32.9111 33.4248 32.9111 34.398C32.9111 35.5729 32.9619 35.5847 33.2539 35.6678C36.6436 36.6053 42.4834 38.4922 45.0605 39.4772C40.6172 44.4378 33.9521 47.6064 26.5 47.6064Z" fill="#EBEBEB"/>
</svg>
